<?xml version="1.0" standalone="no"?>
<!DOCTYPE svg PUBLIC "-//W3C//DTD SVG 20010904//EN"
 "http://www.w3.org/TR/2001/REC-SVG-20010904/DTD/svg10.dtd">
<svg version="1.0" xmlns="http://www.w3.org/2000/svg"
 width="1920.000000pt" height="1080.000000pt" viewBox="0 0 1920.000000 1080.000000"
 preserveAspectRatio="xMidYMid meet">
<metadata>
Created by potrace 1.16, written by Peter Selinger 2001-2019
</metadata>
<g transform="translate(0.000000,1080.000000) scale(0.100000,-0.100000)"
fill="#000000" stroke="none">
<path d="M18485 10525 c-390 -94 -1168 -282 -1727 -415 l-1018 -244 0 -563 c0
-489 -2 -563 -15 -563 -13 0 -577 130 -1625 374 -223 52 -406 93 -407 92 -5
-5 -403 -6309 -399 -6314 3 -2 592 61 1308 142 2044 231 2578 292 2584 299 5
5 -17 1040 -32 1494 l-7 193 1027 0 1026 0 0 2840 c0 1562 -1 2840 -2 2839 -2
-1 -322 -79 -713 -174z"/>
<path d="M16460 2967 c0 -1 -115 -663 -255 -1471 -140 -808 -255 -1475 -255
-1482 0 -12 244 -14 1580 -14 l1580 0 0 1280 c0 714 -4 1280 -9 1280 -4 0
-327 50 -717 110 -390 61 -974 151 -1299 200 -324 50 -598 92 -607 94 -10 2
-18 3 -18 3z"/>
</g>
</svg>
